<?xml version="1.0" encoding="UTF-8" standalone="no"?>
<!DOCTYPE svg PUBLIC "-//W3C//DTD SVG 1.1//EN" "http://www.w3.org/Graphics/SVG/1.1/DTD/svg11.dtd">
<svg width="100%" height="100%" viewBox="0 0 127 90" version="1.1" xmlns="http://www.w3.org/2000/svg" xmlns:xlink="http://www.w3.org/1999/xlink" xml:space="preserve" xmlns:serif="http://www.serif.com/" style="fill-rule:evenodd;clip-rule:evenodd;stroke-linejoin:round;stroke-miterlimit:2;">
    <g transform="matrix(1,0,0,1,-641,-589)">
        <g transform="matrix(0.853067,0,0,0.855588,535.567,-1434.34)">
            <g transform="matrix(0.840909,0,0,0.840909,124.102,2365.57)">
                <path d="M70,88.169L70,35.832L116,62.001L70,88.169ZM172.322,19.363C170.298,11.742 164.334,5.739 156.762,3.702C143.037,0 88,0 88,0C88,0 32.963,0 19.237,3.702C11.665,5.739 5.701,11.742 3.677,19.363C0,33.178 0,62 0,62C0,62 0,90.823 3.677,104.637C5.701,112.259 11.665,118.261 19.237,120.299C32.963,124 88,124 88,124C88,124 143.037,124 156.762,120.299C164.334,118.261 170.298,112.259 172.322,104.637C176,90.823 176,62 176,62C176,62 176,33.178 172.322,19.363Z" style="fill:url(#_Linear1);fill-rule:nonzero;"/>
            </g>
        </g>
    </g>
    <defs>
        <linearGradient id="_Linear1" x1="0" y1="0" x2="1" y2="0" gradientUnits="userSpaceOnUse" gradientTransform="matrix(7.61525e-15,124,-124.366,7.59281e-15,88,0)"><stop offset="0" style="stop-color:rgb(255,74,74);stop-opacity:1"/><stop offset="1" style="stop-color:rgb(255,0,0);stop-opacity:1"/></linearGradient>
    </defs>
</svg>
