<?xml version="1.0" encoding="UTF-8" standalone="no"?>
<!DOCTYPE svg PUBLIC "-//W3C//DTD SVG 1.1//EN" "http://www.w3.org/Graphics/SVG/1.1/DTD/svg11.dtd">
<svg width="100%" height="100%" viewBox="0 0 127 127" version="1.1" xmlns="http://www.w3.org/2000/svg" xmlns:xlink="http://www.w3.org/1999/xlink" xml:space="preserve" xmlns:serif="http://www.serif.com/" style="fill-rule:evenodd;clip-rule:evenodd;stroke-linejoin:round;stroke-miterlimit:2;">
    <g transform="matrix(1,0,0,1,-812,-569)">
        <g transform="matrix(0.853067,0,0,0.855588,535.567,-1434.34)">
            <g transform="matrix(0.883651,0,0,0.883651,320.431,2339.9)">
                <path d="M137.532,76.477C110.538,60.446 66.012,58.972 40.243,66.794C36.104,68.049 31.728,65.713 30.475,61.575C29.22,57.434 31.554,53.061 35.695,51.803C65.277,42.824 114.451,44.559 145.527,63.006C149.25,65.215 150.471,70.022 148.264,73.738C146.056,77.46 141.245,78.687 137.532,76.477ZM136.648,100.221C134.755,103.294 130.737,104.257 127.668,102.371C105.163,88.538 70.845,84.53 44.22,92.612C40.768,93.656 37.121,91.709 36.072,88.263C35.032,84.81 36.979,81.17 40.426,80.12C70.841,70.89 108.652,75.36 134.5,91.245C137.569,93.135 138.535,97.155 136.648,100.221ZM126.401,123.024C124.897,125.491 121.683,126.265 119.225,124.761C99.559,112.742 74.807,110.027 45.657,116.686C42.848,117.33 40.048,115.569 39.408,112.761C38.764,109.952 40.518,107.153 43.333,106.512C75.233,99.22 102.597,102.358 124.67,115.846C127.131,117.349 127.906,120.564 126.401,123.024ZM87.995,2.237C41.746,2.237 4.252,39.73 4.252,85.979C4.252,132.232 41.746,169.723 87.995,169.723C134.247,169.723 171.739,132.232 171.739,85.979C171.739,39.73 134.247,2.237 87.995,2.237Z" style="fill:url(#_Linear1);fill-rule:nonzero;"/>
            </g>
        </g>
    </g>
    <defs>
        <linearGradient id="_Linear1" x1="0" y1="0" x2="1" y2="0" gradientUnits="userSpaceOnUse" gradientTransform="matrix(1.01593e-14,165.425,-165.913,1.01293e-14,86.7026,4.2985)"><stop offset="0" style="stop-color:rgb(0,255,114);stop-opacity:1"/><stop offset="1" style="stop-color:rgb(30,215,96);stop-opacity:1"/></linearGradient>
    </defs>
</svg>
