<?xml version="1.0" encoding="UTF-8" standalone="no"?>
<!DOCTYPE svg PUBLIC "-//W3C//DTD SVG 1.1//EN" "http://www.w3.org/Graphics/SVG/1.1/DTD/svg11.dtd">
<svg width="100%" height="100%" viewBox="0 0 128 128" version="1.1" xmlns="http://www.w3.org/2000/svg" xmlns:xlink="http://www.w3.org/1999/xlink" xml:space="preserve" xmlns:serif="http://www.serif.com/" style="fill-rule:evenodd;clip-rule:evenodd;stroke-linejoin:round;stroke-miterlimit:2;">
    <g transform="matrix(1,0,0,1,-982,-570)">
        <g transform="matrix(0.853067,0,0,0.855588,535.567,-1434.34)">
            <g transform="matrix(4.16432,0,0,4.16432,643.766,2386.1)">
                <path d="M0,15.178L-2.591,15.178C-3.58,15.178 -3.87,14.39 -5.626,12.633C-7.164,11.151 -7.823,10.958 -8.208,10.958C-8.729,10.958 -8.885,11.106 -8.885,11.846L-8.885,14.17C-8.885,14.808 -9.089,15.178 -10.736,15.178C-13.481,15.178 -16.499,13.511 -18.64,10.437C-21.853,5.934 -22.731,2.53 -22.731,1.843C-22.731,1.459 -22.583,1.11 -21.842,1.11L-19.251,1.11C-18.588,1.11 -18.339,1.4 -18.091,2.117C-16.824,5.81 -14.687,9.036 -13.808,9.036C-13.479,9.036 -13.328,8.884 -13.328,8.048L-13.328,4.232C-13.424,2.474 -14.357,2.33 -14.357,1.706C-14.357,1.416 -14.109,1.11 -13.698,1.11L-9.625,1.11C-9.076,1.11 -8.885,1.404 -8.885,2.063L-8.885,7.197C-8.885,7.746 -8.646,7.938 -8.482,7.938C-8.152,7.938 -7.878,7.746 -7.274,7.142C-5.407,5.055 -4.089,1.843 -4.089,1.843C-3.924,1.459 -3.621,1.11 -2.961,1.11L-0.37,1.11C0.414,1.11 0.578,1.513 0.414,2.063C0.084,3.573 -3.073,8.02 -3.073,8.02C-3.348,8.46 -3.458,8.679 -3.073,9.173C-2.799,9.558 -1.893,10.326 -1.289,11.04C-0.175,12.292 0.664,13.349 0.897,14.077C1.111,14.808 0.741,15.178 0,15.178M-5.474,-10.181L-16.374,-10.181C-26.325,-10.181 -28.694,-7.812 -28.694,2.139L-28.694,13.038C-28.694,22.99 -26.325,25.359 -16.374,25.359L-5.474,25.359C4.477,25.359 6.846,22.99 6.846,13.038L6.846,2.139C6.846,-7.812 4.477,-10.181 -5.474,-10.181" style="fill:url(#_Linear1);"/>
            </g>
        </g>
    </g>
    <defs>
        <linearGradient id="_Linear1" x1="0" y1="0" x2="1" y2="0" gradientUnits="userSpaceOnUse" gradientTransform="matrix(4.63646e-15,-75.4961,75.7192,4.6228e-15,-10.8869,25.359)"><stop offset="0" style="stop-color:rgb(67,118,166);stop-opacity:1"/><stop offset="1" style="stop-color:rgb(153,188,220);stop-opacity:1"/></linearGradient>
    </defs>
</svg>
