<svg width="100%" height="100%" viewBox="0 0 128 128" version="1.1" xmlns="http://www.w3.org/2000/svg" xmlns:xlink="http://www.w3.org/1999/xlink" xml:space="preserve" xmlns:serif="http://www.serif.com/" style="fill-rule:evenodd;clip-rule:evenodd;stroke-linejoin:round;stroke-miterlimit:2;">
    <g transform="matrix(1,0,0,1,-812,-565)">
        <g transform="matrix(1.5242,0,0,1.5287,-137.704,-3125.35)">
            <g transform="matrix(0.497487,0,0,0.496024,621.049,2413.22)">
                <path d="M87.995,2.237C41.746,2.237 4.252,39.73 4.252,85.979C4.252,132.232 41.746,169.723 87.995,169.723C134.247,169.723 171.739,132.232 171.739,85.979C171.739,39.73 134.247,2.237 87.995,2.237Z" style="fill:rgb(30,215,96);"/>
            </g>
            <g transform="matrix(0.65996,0,0,0.65608,87.197,2040.8)">
                <path d="M904.199,660.664C903.066,662.529 900.643,663.114 898.79,661.977C883.965,652.89 865.307,650.837 843.333,655.872C841.216,656.359 839.105,655.027 838.623,652.904C838.137,650.781 839.46,648.664 841.582,648.18C865.628,642.667 886.256,645.039 902.894,655.237C904.75,656.373 905.334,658.804 904.199,660.664ZM911.924,643.424C910.497,645.747 907.468,646.475 905.154,645.049C888.19,634.591 862.32,631.561 842.25,637.671C839.648,638.46 836.899,636.988 836.108,634.383C835.324,631.772 836.792,629.02 839.39,628.226C862.317,621.248 890.82,624.628 910.304,636.637C912.618,638.066 913.346,641.106 911.924,643.424ZM912.59,625.472C892.242,613.352 858.677,612.238 839.252,618.151C836.132,619.1 832.834,617.334 831.889,614.206C830.943,611.075 832.702,607.769 835.824,606.818C858.123,600.029 895.191,601.341 918.617,615.287C921.423,616.958 922.344,620.592 920.68,623.401C919.016,626.215 915.389,627.143 912.59,625.472Z" style="fill:white;"/>
            </g>
        </g>
    </g>
</svg>
