<?xml version="1.0" encoding="UTF-8" standalone="no"?>
<!DOCTYPE svg PUBLIC "-//W3C//DTD SVG 1.1//EN" "http://www.w3.org/Graphics/SVG/1.1/DTD/svg11.dtd">
<svg width="100%" height="100%" viewBox="0 0 128 128" version="1.1" xmlns="http://www.w3.org/2000/svg" xmlns:xlink="http://www.w3.org/1999/xlink" xml:space="preserve" xmlns:serif="http://www.serif.com/" style="fill-rule:evenodd;clip-rule:evenodd;stroke-linejoin:round;stroke-miterlimit:2;">
    <g transform="matrix(1,0,0,1,-982,-565)">
        <g transform="matrix(1.5242,0,0,1.5287,-137.704,-3125.35)">
            <g transform="matrix(2.64583,0,0,2.64583,-1253.36,-4005.05)">
                <g transform="matrix(0.656083,0,0,0.65415,751.562,2426.22)">
                    <path d="M0,23.04C0,12.179 0,6.748 3.374,3.374C6.748,0 12.179,0 23.04,0L24.96,0C35.821,0 41.252,0 44.626,3.374C48,6.748 48,12.179 48,23.04L48,24.96C48,35.821 48,41.252 44.626,44.626C41.252,48 35.821,48 24.96,48L23.04,48C12.179,48 6.748,48 3.374,44.626C0,41.252 0,35.821 0,24.96L0,23.04Z" style="fill:rgb(0,119,255);fill-rule:nonzero;"/>
                </g>
                <g transform="matrix(0.656083,0,0,0.65415,751.562,2426.22)">
                    <path d="M25.54,34.58C14.6,34.58 8.36,27.08 8.1,14.6L13.58,14.6C13.76,23.76 17.8,27.64 21,28.44L21,14.6L26.16,14.6L26.16,22.5C29.32,22.16 32.64,18.56 33.76,14.6L38.92,14.6C38.06,19.48 34.46,23.08 31.9,24.56C34.46,25.76 38.56,28.9 40.12,34.58L34.44,34.58C33.22,30.78 30.18,27.84 26.16,27.44L26.16,34.58L25.54,34.58Z" style="fill:white;fill-rule:nonzero;"/>
                </g>
            </g>
        </g>
    </g>
</svg>
