<?xml version="1.0" encoding="UTF-8" standalone="no"?>
<!DOCTYPE svg PUBLIC "-//W3C//DTD SVG 1.1//EN" "http://www.w3.org/Graphics/SVG/1.1/DTD/svg11.dtd">
<svg width="100%" height="100%" viewBox="0 0 1296 292" version="1.1" xmlns="http://www.w3.org/2000/svg" xmlns:xlink="http://www.w3.org/1999/xlink" xml:space="preserve" xmlns:serif="http://www.serif.com/" style="fill-rule:evenodd;clip-rule:evenodd;stroke-linejoin:round;stroke-miterlimit:2;">
    <g transform="matrix(1,0,0,1,-2424,-878)">
        <g transform="matrix(1,0,0,1,51,0)">
            <g transform="matrix(1,0,0,1,1997,5)">
                <g>
                    <g transform="matrix(0.370396,0,0,0.370396,141.864,682.946)">
                        <g transform="matrix(1.45313,0,0,1.45313,-311.545,-88.2351)">
                            <path d="M1188.56,622.063C1188.56,508.043 1096.12,415.612 982.104,415.612L649.61,415.612L649.61,748.106C649.61,862.126 742.041,954.558 856.061,954.558L1188.56,954.558L1188.56,622.063Z" style="fill:rgba(255,255,255,.0);"/>
                        </g>
                        <g transform="matrix(644.206,0,0,644.206,699.381,1138.79)">
                            <path d="M0.82,-0.816C0.829,-0.805 0.832,-0.79 0.828,-0.777C0.823,-0.763 0.812,-0.753 0.799,-0.749C0.642,-0.711 0.449,-0.691 0.221,-0.691C0.178,-0.69 0.138,-0.713 0.115,-0.75C0.115,-0.75 0.115,-0.75 0.115,-0.75C0.431,-0.745 0.666,-0.767 0.82,-0.816C0.82,-0.816 0.82,-0.816 0.82,-0.816ZM0.887,-0.435C0.887,-0.435 0.887,-0.435 0.887,-0.435C0.871,-0.435 0.855,-0.441 0.843,-0.453C0.831,-0.465 0.824,-0.48 0.824,-0.497L0.824,-0.531L0.178,-0.531L0.178,-0.499C0.178,-0.481 0.171,-0.465 0.159,-0.453C0.147,-0.441 0.131,-0.434 0.114,-0.434L0.114,-0.434L0.114,-0.434C0.114,-0.519 0.183,-0.588 0.268,-0.588L0.289,-0.588C0.271,-0.616 0.247,-0.639 0.216,-0.659C0.255,-0.674 0.3,-0.662 0.327,-0.63C0.337,-0.616 0.347,-0.603 0.355,-0.588L0.505,-0.588C0.501,-0.604 0.494,-0.619 0.484,-0.633C0.477,-0.643 0.476,-0.655 0.48,-0.666C0.484,-0.676 0.494,-0.684 0.505,-0.687C0.505,-0.687 0.505,-0.687 0.505,-0.687C0.53,-0.663 0.55,-0.63 0.566,-0.588L0.66,-0.588C0.696,-0.623 0.724,-0.666 0.746,-0.717C0.761,-0.712 0.773,-0.7 0.778,-0.685C0.784,-0.669 0.782,-0.653 0.773,-0.639C0.761,-0.622 0.749,-0.605 0.735,-0.589L0.735,-0.589C0.775,-0.589 0.814,-0.573 0.843,-0.544C0.871,-0.516 0.887,-0.477 0.887,-0.437L0.887,-0.435ZM0.581,-0.434L0.534,-0.394C0.511,-0.43 0.471,-0.458 0.415,-0.479L0.463,-0.516C0.509,-0.499 0.548,-0.471 0.581,-0.434ZM0.879,-0.347C0.879,-0.347 0.879,-0.347 0.879,-0.347C0.853,-0.328 0.817,-0.333 0.798,-0.359C0.771,-0.395 0.739,-0.423 0.703,-0.444L0.753,-0.478C0.802,-0.448 0.844,-0.404 0.879,-0.347ZM0.704,-0.422C0.693,-0.352 0.661,-0.317 0.607,-0.317L0.41,-0.317C0.382,-0.317 0.36,-0.325 0.343,-0.34C0.325,-0.356 0.317,-0.377 0.317,-0.403L0.317,-0.477L0.317,-0.477C0.352,-0.477 0.381,-0.448 0.381,-0.413L0.381,-0.403C0.381,-0.384 0.391,-0.375 0.41,-0.375L0.599,-0.375C0.609,-0.375 0.618,-0.378 0.626,-0.385C0.628,-0.387 0.631,-0.391 0.633,-0.395C0.639,-0.408 0.65,-0.418 0.663,-0.423C0.676,-0.428 0.691,-0.428 0.704,-0.422C0.704,-0.422 0.704,-0.422 0.704,-0.422ZM0.289,-0.437C0.277,-0.406 0.26,-0.379 0.237,-0.355C0.223,-0.341 0.204,-0.332 0.185,-0.332C0.165,-0.331 0.145,-0.338 0.131,-0.352C0.131,-0.352 0.131,-0.352 0.131,-0.352C0.183,-0.375 0.219,-0.413 0.238,-0.465L0.289,-0.437ZM0.952,0.007C0.952,0.007 0.952,0.007 0.952,0.007C0.931,0.042 0.891,0.061 0.85,0.054C0.734,0.034 0.63,0.002 0.537,-0.04C0.425,0.01 0.297,0.042 0.151,0.057C0.111,0.062 0.072,0.043 0.049,0.01C0.049,0.01 0.049,0.01 0.049,0.01C0.218,-0.001 0.36,-0.029 0.474,-0.075C0.429,-0.102 0.384,-0.141 0.34,-0.193C0.305,-0.159 0.269,-0.13 0.234,-0.107C0.201,-0.086 0.158,-0.09 0.129,-0.117C0.128,-0.117 0.128,-0.117 0.128,-0.117C0.222,-0.159 0.299,-0.223 0.359,-0.311L0.415,-0.29L0.394,-0.261L0.725,-0.261C0.74,-0.261 0.752,-0.249 0.752,-0.234C0.752,-0.215 0.745,-0.197 0.733,-0.183C0.7,-0.144 0.657,-0.109 0.603,-0.075C0.698,-0.036 0.815,-0.008 0.952,0.007ZM0.673,-0.202L0.408,-0.203C0.444,-0.165 0.488,-0.132 0.541,-0.103C0.594,-0.131 0.638,-0.164 0.673,-0.202Z" style="fill-rule:nonzero;"/>
                        </g>
                    </g>
                    <g transform="matrix(4.23648,0,0,4.23648,-3222.86,-3556.24)">
                        <g transform="matrix(50,0,0,50,928.183,1096.51)">
                            <path d="M0.511,-0.5L0.511,-0L0.421,-0L0.421,-0.35L0.154,0.001L0.07,0.001L0.07,-0.5L0.16,-0.5L0.16,-0.15L0.427,-0.5L0.511,-0.5Z" style="fill-rule:nonzero;"/>
                        </g>
                        <g transform="matrix(50,0,0,50,957.233,1096.51)">
                            <path d="M0.526,-0.052C0.503,-0.035 0.475,-0.021 0.444,-0.008C0.413,0.005 0.377,0.012 0.337,0.012C0.304,0.012 0.274,0.007 0.247,-0.003C0.219,-0.012 0.195,-0.026 0.174,-0.044C0.154,-0.062 0.138,-0.084 0.126,-0.111C0.113,-0.138 0.106,-0.168 0.105,-0.202L0.105,-0.207C0.094,-0.206 0.084,-0.205 0.073,-0.204C0.062,-0.204 0.051,-0.202 0.04,-0.198L0.04,-0.289C0.051,-0.292 0.062,-0.294 0.073,-0.295C0.084,-0.296 0.095,-0.297 0.106,-0.298C0.108,-0.33 0.115,-0.359 0.128,-0.386C0.141,-0.413 0.158,-0.436 0.179,-0.455C0.2,-0.474 0.226,-0.489 0.255,-0.5C0.284,-0.511 0.317,-0.516 0.352,-0.516C0.39,-0.516 0.424,-0.508 0.455,-0.491C0.478,-0.478 0.498,-0.459 0.513,-0.436C0.528,-0.413 0.536,-0.386 0.536,-0.357C0.536,-0.326 0.526,-0.298 0.505,-0.271C0.484,-0.243 0.458,-0.225 0.429,-0.217C0.399,-0.208 0.367,-0.204 0.332,-0.204C0.317,-0.204 0.299,-0.205 0.279,-0.206C0.258,-0.207 0.24,-0.208 0.223,-0.208C0.218,-0.208 0.214,-0.208 0.21,-0.207C0.206,-0.207 0.202,-0.207 0.199,-0.206L0.199,-0.201C0.199,-0.162 0.212,-0.132 0.238,-0.112C0.265,-0.091 0.298,-0.081 0.337,-0.081C0.357,-0.081 0.376,-0.083 0.393,-0.086C0.409,-0.089 0.426,-0.094 0.441,-0.1C0.456,-0.106 0.47,-0.113 0.484,-0.121C0.498,-0.129 0.512,-0.138 0.526,-0.147L0.526,-0.052ZM0.364,-0.429C0.343,-0.429 0.324,-0.426 0.305,-0.421C0.285,-0.416 0.269,-0.408 0.254,-0.397C0.238,-0.386 0.226,-0.373 0.217,-0.357C0.207,-0.34 0.201,-0.321 0.199,-0.298L0.253,-0.3C0.264,-0.299 0.278,-0.298 0.295,-0.298C0.311,-0.297 0.327,-0.297 0.342,-0.297C0.355,-0.297 0.369,-0.298 0.382,-0.3C0.395,-0.301 0.407,-0.305 0.418,-0.31C0.428,-0.315 0.436,-0.321 0.443,-0.33C0.449,-0.339 0.452,-0.35 0.452,-0.363C0.452,-0.387 0.443,-0.404 0.425,-0.414C0.407,-0.424 0.387,-0.429 0.364,-0.429Z" style="fill-rule:nonzero;"/>
                        </g>
                        <g transform="matrix(50,0,0,50,985.783,1096.51)">
                            <path d="M0.25,-0.512C0.289,-0.512 0.324,-0.505 0.355,-0.493C0.386,-0.48 0.413,-0.461 0.435,-0.438C0.457,-0.415 0.474,-0.387 0.486,-0.356C0.497,-0.324 0.503,-0.289 0.503,-0.251C0.503,-0.219 0.498,-0.187 0.487,-0.156C0.475,-0.125 0.459,-0.097 0.438,-0.072C0.417,-0.047 0.391,-0.027 0.36,-0.012C0.329,0.003 0.293,0.011 0.252,0.011C0.235,0.011 0.218,0.01 0.199,0.008C0.18,0.007 0.164,0.005 0.153,0.002L0.153,0.173L0.06,0.173L0.06,-0.462C0.075,-0.471 0.092,-0.479 0.109,-0.486C0.126,-0.492 0.142,-0.497 0.159,-0.501C0.176,-0.505 0.192,-0.508 0.207,-0.509C0.223,-0.511 0.237,-0.512 0.25,-0.512ZM0.417,-0.266C0.417,-0.293 0.411,-0.316 0.401,-0.336C0.39,-0.355 0.375,-0.371 0.358,-0.384C0.341,-0.396 0.321,-0.405 0.299,-0.411C0.276,-0.417 0.254,-0.42 0.231,-0.42C0.206,-0.42 0.18,-0.415 0.153,-0.406L0.153,-0.092C0.164,-0.089 0.177,-0.087 0.192,-0.086C0.207,-0.086 0.22,-0.085 0.231,-0.085C0.26,-0.085 0.285,-0.089 0.309,-0.096C0.332,-0.102 0.351,-0.113 0.367,-0.128C0.383,-0.143 0.395,-0.161 0.404,-0.184C0.413,-0.207 0.417,-0.234 0.417,-0.266Z" style="fill-rule:nonzero;"/>
                        </g>
                        <g transform="matrix(50,0,0,50,1013.43,1096.51)">
                            <path d="M0.287,0.011C0.25,0.011 0.216,0.004 0.184,-0.01C0.151,-0.024 0.123,-0.043 0.099,-0.067C0.074,-0.091 0.055,-0.119 0.041,-0.151C0.027,-0.183 0.02,-0.217 0.02,-0.253C0.02,-0.29 0.027,-0.324 0.041,-0.356C0.055,-0.388 0.074,-0.416 0.099,-0.44C0.123,-0.464 0.151,-0.483 0.184,-0.497C0.216,-0.511 0.25,-0.518 0.287,-0.518C0.323,-0.518 0.357,-0.511 0.39,-0.497C0.422,-0.483 0.45,-0.464 0.474,-0.44C0.498,-0.416 0.517,-0.388 0.531,-0.356C0.545,-0.324 0.552,-0.29 0.552,-0.253C0.552,-0.217 0.545,-0.183 0.531,-0.151C0.517,-0.119 0.498,-0.091 0.474,-0.067C0.45,-0.043 0.422,-0.024 0.39,-0.01C0.357,0.004 0.323,0.011 0.287,0.011ZM0.287,-0.424C0.263,-0.424 0.24,-0.42 0.219,-0.41C0.198,-0.402 0.179,-0.389 0.164,-0.374C0.148,-0.359 0.135,-0.341 0.126,-0.32C0.117,-0.299 0.112,-0.277 0.112,-0.253C0.112,-0.229 0.117,-0.207 0.126,-0.186C0.135,-0.165 0.148,-0.147 0.164,-0.132C0.179,-0.116 0.198,-0.103 0.219,-0.095C0.24,-0.086 0.263,-0.081 0.287,-0.081C0.311,-0.081 0.334,-0.086 0.355,-0.095C0.376,-0.103 0.394,-0.116 0.409,-0.132C0.425,-0.147 0.438,-0.165 0.447,-0.186C0.456,-0.207 0.46,-0.229 0.46,-0.253C0.46,-0.277 0.456,-0.299 0.447,-0.32C0.438,-0.341 0.425,-0.359 0.409,-0.374C0.394,-0.389 0.376,-0.402 0.355,-0.41C0.334,-0.42 0.311,-0.424 0.287,-0.424ZM0.287,0.011C0.25,0.011 0.216,0.004 0.184,-0.01C0.151,-0.024 0.123,-0.043 0.099,-0.067C0.074,-0.091 0.055,-0.119 0.041,-0.151C0.027,-0.183 0.02,-0.217 0.02,-0.253C0.02,-0.29 0.027,-0.324 0.041,-0.356C0.055,-0.388 0.074,-0.416 0.099,-0.44C0.123,-0.464 0.151,-0.483 0.184,-0.497C0.216,-0.511 0.25,-0.518 0.287,-0.518C0.323,-0.518 0.357,-0.511 0.39,-0.497C0.422,-0.483 0.45,-0.464 0.474,-0.44C0.498,-0.416 0.517,-0.388 0.531,-0.356C0.545,-0.324 0.552,-0.29 0.552,-0.253C0.552,-0.217 0.545,-0.183 0.531,-0.151C0.517,-0.119 0.498,-0.091 0.474,-0.067C0.45,-0.043 0.422,-0.024 0.39,-0.01C0.357,0.004 0.323,0.011 0.287,0.011ZM0.287,-0.424C0.263,-0.424 0.24,-0.42 0.219,-0.41C0.198,-0.402 0.179,-0.389 0.164,-0.374C0.148,-0.359 0.135,-0.341 0.126,-0.32C0.117,-0.299 0.112,-0.277 0.112,-0.253C0.112,-0.229 0.117,-0.207 0.126,-0.186C0.135,-0.165 0.148,-0.147 0.164,-0.132C0.179,-0.116 0.198,-0.103 0.219,-0.095C0.24,-0.086 0.263,-0.081 0.287,-0.081C0.311,-0.081 0.334,-0.086 0.355,-0.095C0.376,-0.103 0.394,-0.116 0.409,-0.132C0.425,-0.147 0.438,-0.165 0.447,-0.186C0.456,-0.207 0.46,-0.229 0.46,-0.253C0.46,-0.277 0.456,-0.299 0.447,-0.32C0.438,-0.341 0.425,-0.359 0.409,-0.374C0.394,-0.389 0.376,-0.402 0.355,-0.41C0.334,-0.42 0.311,-0.424 0.287,-0.424Z" style="fill-rule:nonzero;"/>
                        </g>
                        <g transform="matrix(50,0,0,50,1042.03,1096.51)">
                            <path d="M0.441,-0.411L0.161,-0.411L0.161,-0.001L0.07,-0.001L0.07,-0.501L0.441,-0.501L0.441,-0.411Z" style="fill-rule:nonzero;"/>
                        </g>
                        <g transform="matrix(50,0,0,50,1061.43,1096.51)">
                            <path d="M0.49,-0.5L0.49,-0.001L0.402,-0.001L0.402,-0.411C0.392,-0.411 0.38,-0.411 0.367,-0.41C0.353,-0.409 0.339,-0.408 0.325,-0.406C0.311,-0.403 0.298,-0.4 0.285,-0.395C0.272,-0.39 0.262,-0.384 0.254,-0.377C0.225,-0.348 0.21,-0.3 0.21,-0.231C0.21,-0.178 0.204,-0.135 0.194,-0.104C0.183,-0.073 0.168,-0.049 0.151,-0.032C0.134,-0.015 0.114,-0.003 0.093,0.002C0.072,0.007 0.051,0.01 0.03,0.01L0.03,-0.08C0.041,-0.08 0.051,-0.081 0.062,-0.083C0.073,-0.084 0.082,-0.09 0.091,-0.1C0.1,-0.109 0.107,-0.124 0.112,-0.145C0.117,-0.165 0.12,-0.194 0.12,-0.231C0.12,-0.326 0.144,-0.396 0.192,-0.442C0.206,-0.455 0.222,-0.465 0.241,-0.472C0.259,-0.48 0.278,-0.486 0.298,-0.49C0.318,-0.494 0.336,-0.497 0.354,-0.498C0.372,-0.499 0.388,-0.5 0.4,-0.5L0.49,-0.5Z" style="fill-rule:nonzero;"/>
                        </g>
                        <g transform="matrix(50,0,0,50,1089.48,1096.51)">
                            <path d="M0.511,-0.5L0.511,-0L0.421,-0L0.421,-0.35L0.154,0.001L0.07,0.001L0.07,-0.5L0.16,-0.5L0.16,-0.15L0.427,-0.5L0.511,-0.5Z" style="fill-rule:nonzero;"/>
                        </g>
                        <g transform="matrix(50,0,0,50,1118.53,1096.51)">
                            <path d="M0.57,-0.47C0.594,-0.462 0.617,-0.45 0.637,-0.435C0.658,-0.42 0.675,-0.402 0.69,-0.381C0.705,-0.36 0.716,-0.337 0.724,-0.312C0.733,-0.286 0.737,-0.261 0.737,-0.235C0.737,-0.202 0.731,-0.17 0.719,-0.14C0.706,-0.109 0.689,-0.082 0.667,-0.059C0.645,-0.035 0.619,-0.016 0.589,-0.002C0.559,0.012 0.527,0.019 0.492,0.019C0.479,0.019 0.467,0.018 0.456,0.016C0.444,0.014 0.432,0.011 0.421,0.008L0.421,0.174L0.333,0.174L0.333,0.009C0.322,0.012 0.311,0.015 0.3,0.016C0.288,0.018 0.276,0.019 0.265,0.019C0.232,0.019 0.201,0.012 0.172,-0.001C0.142,-0.014 0.116,-0.033 0.094,-0.056C0.071,-0.079 0.053,-0.106 0.04,-0.137C0.027,-0.168 0.02,-0.2 0.02,-0.235C0.02,-0.26 0.024,-0.284 0.032,-0.309C0.039,-0.334 0.05,-0.357 0.065,-0.378C0.08,-0.399 0.097,-0.417 0.117,-0.434C0.138,-0.45 0.161,-0.462 0.187,-0.471C0.209,-0.478 0.232,-0.482 0.255,-0.482C0.268,-0.482 0.28,-0.481 0.293,-0.479C0.306,-0.477 0.319,-0.474 0.333,-0.471L0.333,-0.6L0.421,-0.6L0.421,-0.47C0.445,-0.477 0.469,-0.481 0.494,-0.481C0.516,-0.481 0.542,-0.477 0.57,-0.47ZM0.108,-0.233C0.108,-0.212 0.112,-0.191 0.12,-0.172C0.128,-0.153 0.139,-0.136 0.153,-0.121C0.167,-0.106 0.183,-0.095 0.203,-0.086C0.222,-0.077 0.242,-0.072 0.264,-0.072C0.289,-0.072 0.312,-0.077 0.333,-0.086L0.333,-0.376C0.31,-0.388 0.286,-0.394 0.261,-0.394C0.241,-0.394 0.221,-0.39 0.203,-0.381C0.184,-0.372 0.168,-0.361 0.154,-0.346C0.14,-0.331 0.129,-0.314 0.12,-0.295C0.112,-0.275 0.108,-0.254 0.108,-0.233ZM0.492,-0.071C0.512,-0.071 0.532,-0.075 0.551,-0.084C0.571,-0.093 0.587,-0.104 0.602,-0.119C0.616,-0.134 0.627,-0.151 0.636,-0.171C0.645,-0.19 0.649,-0.211 0.649,-0.233C0.649,-0.252 0.645,-0.272 0.638,-0.291C0.631,-0.31 0.62,-0.328 0.607,-0.343C0.594,-0.358 0.578,-0.371 0.559,-0.38C0.54,-0.389 0.519,-0.394 0.496,-0.394C0.481,-0.394 0.468,-0.392 0.456,-0.388C0.445,-0.384 0.433,-0.38 0.421,-0.375L0.421,-0.087C0.442,-0.076 0.465,-0.071 0.492,-0.071Z" style="fill-rule:nonzero;"/>
                        </g>
                    </g>
                </g>
            </g>
        </g>
    </g>
</svg>
